<svg width="25" height="24" viewBox="0 0 25 24" fill="none" xmlns="http://www.w3.org/2000/svg">
<path opacity="0.12" d="M9.5 12.2C9.5 11.0799 9.5 10.5198 9.71799 10.092C9.90973 9.71569 10.2157 9.40973 10.592 9.21799C11.0198 9 11.5799 9 12.7 9H19.3C20.4201 9 20.9802 9 21.408 9.21799C21.7843 9.40973 22.0903 9.71569 22.282 10.092C22.5 10.5198 22.5 11.0799 22.5 12.2V18.8C22.5 19.9201 22.5 20.4802 22.282 20.908C22.0903 21.2843 21.7843 21.5903 21.408 21.782C20.9802 22 20.4201 22 19.3 22H12.7C11.5799 22 11.0198 22 10.592 21.782C10.2157 21.5903 9.90973 21.2843 9.71799 20.908C9.5 20.4802 9.5 19.9201 9.5 18.8V12.2Z" fill="white"/>
<path d="M5.5 15C4.56812 15 4.10218 15 3.73463 14.8478C3.24458 14.6448 2.85523 14.2554 2.65224 13.7654C2.5 13.3978 2.5 12.9319 2.5 12V5.2C2.5 4.0799 2.5 3.51984 2.71799 3.09202C2.90973 2.71569 3.21569 2.40973 3.59202 2.21799C4.01984 2 4.5799 2 5.7 2H12.5C13.4319 2 13.8978 2 14.2654 2.15224C14.7554 2.35523 15.1448 2.74458 15.3478 3.23463C15.5 3.60218 15.5 4.06812 15.5 5M12.7 22H19.3C20.4201 22 20.9802 22 21.408 21.782C21.7843 21.5903 22.0903 21.2843 22.282 20.908C22.5 20.4802 22.5 19.9201 22.5 18.8V12.2C22.5 11.0799 22.5 10.5198 22.282 10.092C22.0903 9.71569 21.7843 9.40973 21.408 9.21799C20.9802 9 20.4201 9 19.3 9H12.7C11.5799 9 11.0198 9 10.592 9.21799C10.2157 9.40973 9.90973 9.71569 9.71799 10.092C9.5 10.5198 9.5 11.0799 9.5 12.2V18.8C9.5 19.9201 9.5 20.4802 9.71799 20.908C9.90973 21.2843 10.2157 21.5903 10.592 21.782C11.0198 22 11.5799 22 12.7 22Z" stroke="white" stroke-width="2" stroke-linecap="round" stroke-linejoin="round"/>
</svg>
