<svg width="40" height="40" viewBox="0 0 40 40" fill="none" xmlns="http://www.w3.org/2000/svg">
<rect x="0.5" y="0.5" width="39" height="39" rx="7.5" stroke="#0C5D53"/>
<path opacity="0.12" d="M11.3859 13.6669C10.6296 12.8215 10.2514 12.3989 10.2371 12.0397C10.2247 11.7276 10.3588 11.4277 10.5996 11.2289C10.8768 11 11.444 11 12.5783 11H27.4212C28.5555 11 29.1227 11 29.3999 11.2289C29.6407 11.4277 29.7748 11.7276 29.7624 12.0397C29.7481 12.3989 29.3699 12.8215 28.6136 13.6669L22.9074 20.0444C22.7566 20.2129 22.6812 20.2972 22.6275 20.3931C22.5798 20.4781 22.5448 20.5697 22.5236 20.6648C22.4997 20.7721 22.4997 20.8852 22.4997 21.1113V26.4584C22.4997 26.6539 22.4997 26.7517 22.4682 26.8363C22.4403 26.911 22.395 26.9779 22.336 27.0315C22.2692 27.0922 22.1784 27.1285 21.9969 27.2012L18.5969 28.5612C18.2293 28.7082 18.0455 28.7817 17.898 28.751C17.769 28.7242 17.6558 28.6476 17.583 28.5377C17.4997 28.4122 17.4997 28.2142 17.4997 27.8184V21.1113C17.4997 20.8852 17.4997 20.7721 17.4759 20.6648C17.4547 20.5697 17.4197 20.4781 17.372 20.3931C17.3183 20.2972 17.2429 20.2129 17.0921 20.0444L11.3859 13.6669Z" fill="#0C5D53"/>
<path d="M11.3859 13.6669C10.6296 12.8215 10.2514 12.3989 10.2371 12.0397C10.2247 11.7276 10.3588 11.4277 10.5996 11.2289C10.8768 11 11.444 11 12.5783 11H27.4212C28.5555 11 29.1227 11 29.3999 11.2289C29.6407 11.4277 29.7748 11.7276 29.7624 12.0397C29.7481 12.3989 29.3699 12.8215 28.6136 13.6669L22.9074 20.0444C22.7566 20.2129 22.6812 20.2972 22.6275 20.3931C22.5798 20.4781 22.5448 20.5697 22.5236 20.6648C22.4997 20.7721 22.4997 20.8852 22.4997 21.1113V26.4584C22.4997 26.6539 22.4997 26.7517 22.4682 26.8363C22.4403 26.911 22.395 26.9779 22.336 27.0315C22.2692 27.0922 22.1784 27.1285 21.9969 27.2012L18.5969 28.5612C18.2293 28.7082 18.0455 28.7817 17.898 28.751C17.769 28.7242 17.6558 28.6476 17.583 28.5377C17.4997 28.4122 17.4997 28.2142 17.4997 27.8184V21.1113C17.4997 20.8852 17.4997 20.7721 17.4759 20.6648C17.4547 20.5697 17.4197 20.4781 17.372 20.3931C17.3183 20.2972 17.2429 20.2129 17.0921 20.0444L11.3859 13.6669Z" stroke="#0C5D53" stroke-width="2" stroke-linecap="round" stroke-linejoin="round"/>
</svg>
