<svg width="25" height="24" viewBox="0 0 25 24" fill="none" xmlns="http://www.w3.org/2000/svg">
<g opacity="0.12">
<path d="M18.5 8C20.1569 8 21.5 6.65685 21.5 5C21.5 3.34315 20.1569 2 18.5 2C16.8431 2 15.5 3.34315 15.5 5C15.5 6.65685 16.8431 8 18.5 8Z" fill="#0C5D53"/>
<path d="M6.5 15C8.15685 15 9.5 13.6569 9.5 12C9.5 10.3431 8.15685 9 6.5 9C4.84315 9 3.5 10.3431 3.5 12C3.5 13.6569 4.84315 15 6.5 15Z" fill="#0C5D53"/>
<path d="M18.5 22C20.1569 22 21.5 20.6569 21.5 19C21.5 17.3431 20.1569 16 18.5 16C16.8431 16 15.5 17.3431 15.5 19C15.5 20.6569 16.8431 22 18.5 22Z" fill="#0C5D53"/>
</g>
<path d="M9.09 13.51L15.92 17.49M15.91 6.51L9.09 10.49M21.5 5C21.5 6.65685 20.1569 8 18.5 8C16.8431 8 15.5 6.65685 15.5 5C15.5 3.34315 16.8431 2 18.5 2C20.1569 2 21.5 3.34315 21.5 5ZM9.5 12C9.5 13.6569 8.15685 15 6.5 15C4.84315 15 3.5 13.6569 3.5 12C3.5 10.3431 4.84315 9 6.5 9C8.15685 9 9.5 10.3431 9.5 12ZM21.5 19C21.5 20.6569 20.1569 22 18.5 22C16.8431 22 15.5 20.6569 15.5 19C15.5 17.3431 16.8431 16 18.5 16C20.1569 16 21.5 17.3431 21.5 19Z" stroke="#0C5D53" stroke-width="2" stroke-linecap="round" stroke-linejoin="round"/>
</svg>
